<?xml version="1.0" encoding="UTF-8" standalone="no"?>
<!-- Created with Inkscape (http://www.inkscape.org/) -->

<svg
   xmlns:dc="http://purl.org/dc/elements/1.1/"
   xmlns:cc="http://creativecommons.org/ns#"
   xmlns:rdf="http://www.w3.org/1999/02/22-rdf-syntax-ns#"
   xmlns:svg="http://www.w3.org/2000/svg"
   xmlns="http://www.w3.org/2000/svg"
   xmlns:sodipodi="http://sodipodi.sourceforge.net/DTD/sodipodi-0.dtd"
   xmlns:inkscape="http://www.inkscape.org/namespaces/inkscape"
   width="744.09448819"
   height="1052.3622047"
   id="svg2"
   version="1.1"
   inkscape:version="0.48.2 r9819"
   sodipodi:docname="battery.svg">
  <defs
     id="defs4" />
  <sodipodi:namedview
     id="base"
     pagecolor="#ffffff"
     bordercolor="#666666"
     borderopacity="1.0"
     inkscape:pageopacity="0.0"
     inkscape:pageshadow="2"
     inkscape:zoom="3.5"
     inkscape:cx="293.09177"
     inkscape:cy="868.72335"
     inkscape:document-units="px"
     inkscape:current-layer="layer3"
     showgrid="false"
     inkscape:window-width="987"
     inkscape:window-height="866"
     inkscape:window-x="212"
     inkscape:window-y="45"
     inkscape:window-maximized="0" />
  <metadata
     id="metadata7">
    <rdf:RDF>
      <cc:Work
         rdf:about="">
        <dc:format>image/svg+xml</dc:format>
        <dc:type
           rdf:resource="http://purl.org/dc/dcmitype/StillImage" />
        <dc:title />
      </cc:Work>
    </rdf:RDF>
  </metadata>
  <g
     inkscape:groupmode="layer"
     id="layer2"
     inkscape:label="Background"
     sodipodi:insensitive="true"
     style="display:none">
    <rect
       style="fill:#000000;fill-opacity:1"
       id="rect3763"
       width="132.32999"
       height="240.41631"
       x="238.90108"
       y="71.504059"
       ry="2.1094237e-15" />
  </g>
  <g
     inkscape:label="Holder"
     inkscape:groupmode="layer"
     id="layer1"
     style="display:inline">
    <path
       style="fill:#ffffff;fill-opacity:1"
       d="M 329.5 117.125 C 333.15643 117.92648 335.78125 120.32954 335.78125 123.15625 L 335.78125 215.375 C 335.78125 218.86365 331.77283 221.6875 326.78125 221.6875 L 285.90625 221.6875 C 280.91467 221.6875 276.90625 218.86365 276.90625 215.375 L 276.90625 123.15625 C 276.90625 120.35511 279.48877 117.97869 283.09375 117.15625 C 278.87901 117.56389 275.8125 118.75474 275.8125 120.1875 L 275.8125 219.78125 C 275.8125 221.55108 280.45715 223 286.21875 223 L 326.625 223 C 332.3866 223 337.03125 221.55108 337.03125 219.78125 L 337.03125 120.1875 C 337.03125 118.72443 333.8538 117.50649 329.5 117.125 z "
       id="rect3858"
       inkscape:export-xdpi="287.52081"
       inkscape:export-ydpi="287.52081" />
    <path
       style="fill:#ffffff;fill-opacity:1;stroke:none"
       d="M 296.96875 110.3125 C 296.30395 110.3125 295.75 110.86645 295.75 111.53125 L 295.75 113.8125 C 295.75 113.84659 295.77849 113.87289 295.78125 113.90625 L 283.9375 113.90625 C 283.2727 113.90625 282.75 114.4602 282.75 115.125 L 282.75 115.875 C 282.75 116.5398 283.2727 117.0625 283.9375 117.0625 L 328.59375 117.0625 C 329.25855 117.0625 329.78125 116.5398 329.78125 115.875 L 329.78125 115.125 C 329.78125 114.4602 329.25855 113.90625 328.59375 113.90625 L 316.59375 113.90625 C 316.59651 113.87289 316.625 113.84659 316.625 113.8125 L 316.625 111.53125 C 316.625 110.86645 316.07105 110.3125 315.40625 110.3125 L 296.96875 110.3125 z "
       id="rect3779"
       inkscape:export-xdpi="287.52081"
       inkscape:export-ydpi="287.52081" />
  </g>
  <g
     inkscape:groupmode="layer"
     id="layer3"
     inkscape:label="Powers"
     style="display:inline">
    <rect
       style="fill:#00af5a;fill-opacity:1"
       id="rect3863"
       width="53.425083"
       height="8.4399996"
       x="279.60236"
       y="-127.49503"
       rx="5.990912"
       ry="1.608"
       transform="scale(1,-1)"
       inkscape:export-xdpi="288.147"
       inkscape:export-ydpi="288.147" />
    <rect
       style="fill:#00af5a;fill-opacity:1"
       id="rect14"
       width="53.425083"
       height="8.4399996"
       x="279.60236"
       y="-137.49503"
       rx="5.990912"
       ry="1.608"
       transform="scale(1,-1)"
       inkscape:export-xdpi="287.52081"
       inkscape:export-ydpi="287.52081" />
    <rect
       style="fill:#00af5a;fill-opacity:1"
       id="rect16"
       width="53.425083"
       height="8.4399996"
       x="279.60236"
       y="-147.49503"
       rx="5.990912"
       ry="1.608"
       transform="scale(1,-1)"
       inkscape:export-xdpi="287.52081"
       inkscape:export-ydpi="287.52081" />
    <rect
       style="fill:#00af5a;fill-opacity:1"
       id="rect18"
       width="53.425083"
       height="8.4399996"
       x="279.60236"
       y="-157.49503"
       rx="5.990912"
       ry="1.608"
       transform="scale(1,-1)"
       inkscape:export-xdpi="287.52081"
       inkscape:export-ydpi="287.52081" />
    <rect
       style="fill:#00af5a;fill-opacity:1"
       id="rect20"
       width="53.425083"
       height="8.4399996"
       x="279.60236"
       y="-167.49503"
       rx="5.990912"
       ry="1.608"
       transform="scale(1,-1)"
       inkscape:export-xdpi="287.52081"
       inkscape:export-ydpi="287.52081" />
    <rect
       style="fill:#00af5a;fill-opacity:1"
       id="rect22"
       width="53.425083"
       height="8.4399996"
       x="279.60236"
       y="-177.49503"
       rx="5.990912"
       ry="1.608"
       transform="scale(1,-1)"
       inkscape:export-xdpi="287.52081"
       inkscape:export-ydpi="287.52081" />
    <rect
       style="fill:#00af5a;fill-opacity:1"
       id="rect24"
       width="53.425083"
       height="8.4399996"
       x="279.60236"
       y="-187.49503"
       rx="5.990912"
       ry="1.608"
       transform="scale(1,-1)"
       inkscape:export-xdpi="287.52081"
       inkscape:export-ydpi="287.52081" />
    <rect
       style="fill:#00af5a;fill-opacity:1"
       id="rect26"
       width="53.425083"
       height="8.4399996"
       x="279.60236"
       y="-197.49503"
       rx="5.990912"
       ry="1.608"
       transform="scale(1,-1)"
       inkscape:export-xdpi="287.52081"
       inkscape:export-ydpi="287.52081" />
    <rect
       style="fill:#00af5a;fill-opacity:1"
       id="rect28"
       width="53.425083"
       height="8.4399996"
       x="279.60236"
       y="-207.49503"
       rx="5.990912"
       ry="1.608"
       transform="scale(1,-1)"
       inkscape:export-xdpi="287.52081"
       inkscape:export-ydpi="287.52081" />
    <rect
       style="fill:#00af5a;fill-opacity:1"
       id="rect30"
       width="53.425083"
       height="8.4399996"
       x="279.60236"
       y="-217.49503"
       rx="5.990912"
       ry="1.608"
       transform="scale(1,-1)"
       inkscape:export-xdpi="287.52081"
       inkscape:export-ydpi="287.52081" />
  </g>
</svg>
